<svg xmlns="http://www.w3.org/2000/svg" version="1.1" xmlns:xlink="http://www.w3.org/1999/xlink" width="1000" height="1000"><g clip-path="url(#SvgjsClipPath1073)"><rect width="1000" height="1000" fill="#23c25f"></rect><g transform="matrix(1,0,0,1,0,0)"><svg xmlns="http://www.w3.org/2000/svg" version="1" xmlns:xlink="http://www.w3.org/1999/xlink" xml:space="preserve" width="1000px" height="1000px" style="shape-rendering:geometricPrecision; text-rendering:geometricPrecision; image-rendering:optimizeQuality; fill-rule:evenodd; clip-rule:evenodd" viewBox="0 0 999.58 999.58" xmlns:xodm="http://www.corel.com/coreldraw/odm/2003"><defs>
  <style type="text/css">
   
    .fil0 {fill:#23C25F}
    .fil1 {fill:white}
   
  </style>
 <clipPath id="SvgjsClipPath1073"><rect width="1000" height="1000" x="0" y="0" rx="500" ry="500"></rect></clipPath></defs><g id="Camada_x0020_1">
  <metadata id="CorelCorpID_0Corel-Layer"></metadata>
  <rect class="fil0" width="999.58" height="999.58"></rect>
  <path class="fil1" d="M719.92 366.85c-16.14,-10.58 -44.2,-19.3 -68.28,-18.23 -1.33,0.54 -53.42,94.5 -55.27,97.95 -9.25,16.94 -18.23,33.08 -27.49,48.96l-25.65 45.8c-0.79,1.58 0,0 -1.06,1.58l-0.79 1.06c-2.92,-2.91 -30.99,-51.59 -33.64,-56.35 -4.23,-7.4 -62.24,-106.61 -67,-112.7 -18.53,-23.8 -38.12,-23.79 -65.64,-23.52l-134.7 1.65c-16.94,0.27 -39.7,-3.16 -32.28,10.6 8.21,15.35 23.83,39.95 33.37,56.35l99.85 169.05c27.01,46.3 57.47,95.24 83.16,141.01 4.23,7.41 9.53,6.88 12.7,1.05l24.07 -43.14c14.8,-24.62 33.31,-59.56 48.12,-85.5 2.37,-4.24 28.81,-52.67 32.26,-56.38 0,0 0.26,0.53 0.26,0.53l4.24 6.08c10.06,14.55 23.83,28.04 38.65,37.03 18.26,11.11 41.56,19.04 67.23,19.03 48.69,-0.03 87.32,-23.6 111.91,-62.51 25.38,-40.5 24.83,-94.75 -0.33,-136.29 -11.65,-19.31 -25.15,-31.21 -43.68,-43.37l0 0 0 0 -0.01 0.26zm0 0zm0 0z"></path>
 </g></svg></g></g></svg>