<?xml version="1.0" encoding="UTF-8"?>
<!DOCTYPE svg PUBLIC "-//W3C//DTD SVG 1.0//EN" "http://www.w3.org/TR/2001/REC-SVG-20010904/DTD/svg10.dtd">
<!-- Creator: CorelDRAW (Versão OEM) -->
<svg xmlns="http://www.w3.org/2000/svg" xml:space="preserve" width="130px" height="34px" version="1.0" style="shape-rendering:geometricPrecision; text-rendering:geometricPrecision; image-rendering:optimizeQuality; fill-rule:evenodd; clip-rule:evenodd"
viewBox="0 0 32.45 8.55"
 xmlns:xlink="http://www.w3.org/1999/xlink"
 xmlns:xodm="http://www.corel.com/coreldraw/odm/2003">
 <defs>
  <style type="text/css">
   <![CDATA[
    .fil2 {fill:none}
    .fil1 {fill:#23C25F}
    .fil0 {fill:white;fill-rule:nonzero}
   ]]>
  </style>
 </defs>
 <g id="Camada_x0020_1">
  <metadata id="CorelCorpID_0Corel-Layer"/>
  <g id="_2071643834096">
   <path class="fil0" d="M12.32 6.55l0.01 0c0.87,0 1.49,-0.46 1.69,-1.28l-0.93 0c-0.1,0.37 -0.38,0.56 -0.78,0.56 -0.48,0 -0.76,-0.31 -0.82,-0.9l2.53 0c0.18,-1.17 -0.57,-2.09 -1.71,-2.09 -1.02,0 -1.77,0.78 -1.77,1.85 0,1.12 0.71,1.86 1.78,1.86l0 0zm-1.8 -3.64l-0.93 0 -0.86 2.52 -0.85 -2.52 -1.01 0 1.33 3.58 1.01 0 1.31 -3.58 0 0 0 0zm20.21 3.64c0.87,0 1.49,-0.46 1.69,-1.28l-0.92 0c-0.11,0.37 -0.39,0.56 -0.79,0.56 -0.48,0 -0.75,-0.31 -0.81,-0.9l2.53 0c0.17,-1.17 -0.58,-2.09 -1.71,-2.09 -1.03,0 -1.77,0.78 -1.77,1.85 0,1.12 0.71,1.86 1.78,1.86l0 0zm-0.03 -3.02c0.44,0 0.72,0.31 0.74,0.81l-1.53 0c0.07,-0.53 0.35,-0.81 0.79,-0.81zm-2.1 2.96l0 -0.81 -1.9 0 1.85 -2 0 -0.77 -3.01 0 0 0.8 1.85 0 -1.84 2.03 0 0.75 3.05 0 0 0 0 0zm-4.15 0l0.76 0 0 -2.25c0,-0.88 -0.55,-1.4 -1.49,-1.4 -0.86,0 -1.46,0.54 -1.51,1.36l0.83 0c0.03,-0.39 0.28,-0.64 0.68,-0.64 0.39,0 0.62,0.25 0.62,0.64l0 0.22c-0.23,-0.03 -0.4,-0.04 -0.6,-0.04 -1.05,0 -1.61,0.38 -1.61,1.07 0,0.67 0.5,1.11 1.24,1.11 0.49,0 0.97,-0.38 1.08,-0.76l0 0.69 0 0zm-1.44 -1.06c0,-0.33 0.26,-0.49 0.79,-0.49 0.16,0 0.31,0.01 0.54,0.04l0 0.26c0,0.41 -0.29,0.67 -0.76,0.67 -0.36,0 -0.57,-0.19 -0.57,-0.48l0 0zm-4.87 -0.73c0,1.05 0.63,1.86 1.59,1.86 0.46,0 1,-0.32 1.13,-0.76l0 0.69 0.85 0 0 -4.5 -0.92 0 0 1.38c-0.27,-0.34 -0.63,-0.53 -1.06,-0.53 -0.96,0 -1.59,0.8 -1.59,1.86zm0.96 0c0,-0.69 0.38,-1.03 0.84,-1.03 0.45,0 0.84,0.34 0.84,1.02 0,0.68 -0.38,1.03 -0.84,1.03 -0.46,0 -0.84,-0.35 -0.84,-1.02zm-3.62 -0.16c0,-0.58 0.32,-0.87 0.69,-0.87 0.42,0 0.63,0.29 0.63,0.83l0 1.99 0.92 0 0 -2.31c0,-0.87 -0.5,-1.34 -1.21,-1.34 -0.47,0 -1.01,0.25 -1.1,0.86l0 -0.79 -0.86 0 0 3.58 0.93 0 0 -1.95 0 0zm-3.18 -1.01c0.44,0 0.71,0.31 0.74,0.81l-1.54 0c0.08,-0.53 0.36,-0.81 0.8,-0.81z"/>
   <path class="fil1" d="M5.15 2.77c-0.17,-0.1 -0.46,-0.18 -0.7,-0.17 -0.01,0.01 -0.52,0.96 -0.54,0.99 -0.09,0.17 -0.17,0.33 -0.27,0.5l-0.24 0.46c-0.01,0.01 0,0 -0.02,0.01l0 0.02c-0.03,-0.04 -0.32,-0.52 -0.35,-0.57 -0.04,-0.07 -0.64,-1.05 -0.68,-1.11 -0.19,-0.24 -0.39,-0.24 -0.67,-0.23l-1.35 0.03c-0.17,0 -0.39,-0.02 -0.31,0.11 0.08,0.15 0.24,0.4 0.33,0.57l1.03 1.67c0.28,0.47 0.59,0.95 0.86,1.41 0.04,0.07 0.09,0.07 0.12,0.01l0.23 -0.44c0.15,-0.25 0.33,-0.6 0.47,-0.86 0.03,-0.05 0.29,-0.54 0.32,-0.58 0,0 0,0.01 0,0.01l0.05 0.06c0.1,0.15 0.24,0.28 0.39,0.37 0.19,0.11 0.42,0.18 0.68,0.18 0.48,-0.01 0.87,-0.25 1.11,-0.65 0.25,-0.41 0.23,-0.95 -0.03,-1.36 -0.11,-0.19 -0.25,-0.31 -0.43,-0.43l0 0 0 0 0 0 0 0zm0 0zm0 0z"/>
   <rect class="fil2" width="32.45" height="8.55"/>
  </g>
 </g>
</svg>
