<?xml version="1.0" encoding="UTF-8"?>
<!DOCTYPE svg PUBLIC "-//W3C//DTD SVG 1.0//EN" "http://www.w3.org/TR/2001/REC-SVG-20010904/DTD/svg10.dtd">
<!-- Creator: CorelDRAW (Versão OEM) -->
<svg xmlns="http://www.w3.org/2000/svg" xml:space="preserve" width="250px" height="35px" version="1.0" style="shape-rendering:geometricPrecision; text-rendering:geometricPrecision; image-rendering:optimizeQuality; fill-rule:evenodd; clip-rule:evenodd"
viewBox="0 0 250.48 35.01"
 xmlns:xlink="http://www.w3.org/1999/xlink"
 xmlns:xodm="http://www.corel.com/coreldraw/odm/2003">
 <defs>
  <style type="text/css">
   <![CDATA[
    .fil2 {fill:none}
    .fil1 {fill:#23C25F}
    .fil0 {fill:white;fill-rule:nonzero}
   ]]>
  </style>
 </defs>
 <g id="Camada_x0020_1">
  <metadata id="CorelCorpID_0Corel-Layer"/>
  <g id="_2071655355568">
   <path class="fil0" d="M53.22 25.36l0.04 0c3.73,0 6.41,-2.02 7.27,-5.52l-3.99 0c-0.45,1.56 -1.64,2.42 -3.39,2.42 -2.06,0 -3.25,-1.38 -3.51,-3.92l10.93 0c0.74,-5.03 -2.5,-9.02 -7.39,-9.02 -4.43,0 -7.64,3.39 -7.64,7.98 0,4.85 3.06,8.06 7.68,8.06l0 0zm-7.79 -15.74l-4.03 0 -3.69 10.89 -3.7 -10.89 -4.32 0 5.7 15.47 4.4 0 5.64 -15.47 0 0 0 0zm87.27 15.74c3.77,0 6.45,-1.98 7.31,-5.52l-3.99 0c-0.45,1.56 -1.64,2.42 -3.39,2.42 -2.06,0 -3.25,-1.38 -3.51,-3.92l10.93 0c0.74,-5.03 -2.5,-9.02 -7.39,-9.02 -4.43,0 -7.64,3.39 -7.64,7.98 0,4.85 3.06,8.06 7.68,8.06l0 0zm-0.11 -13.06c1.9,0 3.09,1.34 3.21,3.51l-6.64 0c0.33,-2.31 1.53,-3.51 3.43,-3.51zm-9.06 12.79l0 -3.5 -8.21 0 7.98 -8.65 0 -3.32 -12.98 0 0 3.46 7.98 0 -7.94 8.77 0 3.24 13.17 0 0 0 0 0zm-17.94 0l3.28 0 0 -9.73c0,-3.8 -2.39,-6.04 -6.42,-6.04 -3.73,0 -6.3,2.35 -6.52,5.89l3.58 0c0.15,-1.71 1.19,-2.76 2.94,-2.76 1.68,0 2.65,1.05 2.65,2.76l0 0.93c-0.97,-0.11 -1.71,-0.18 -2.57,-0.18 -4.52,0 -6.94,1.64 -6.94,4.66 0,2.87 2.13,4.77 5.33,4.77 2.13,0 4.22,-1.64 4.67,-3.28l0 2.98 0 0zm-6.2 -4.58c0,-1.42 1.12,-2.13 3.4,-2.13 0.71,0 1.34,0.04 2.31,0.19l0 1.12c0,1.79 -1.23,2.91 -3.28,2.91 -1.53,0 -2.43,-0.83 -2.43,-2.09l0 0zm-21.03 -3.14c0,4.52 2.68,8.02 6.86,8.02 1.98,0 4.29,-1.38 4.85,-3.28l0 2.98 3.69 0 0 -19.43 -3.99 0 0 5.97c-1.15,-1.49 -2.72,-2.31 -4.55,-2.31 -4.18,0 -6.86,3.47 -6.86,8.05zm4.14 0c0,-2.98 1.64,-4.47 3.62,-4.47 1.94,0 3.61,1.49 3.61,4.4 0,2.95 -1.64,4.48 -3.61,4.48 -1.98,0 -3.62,-1.53 -3.62,-4.41zm-15.63 -0.7c0,-2.5 1.38,-3.77 2.95,-3.77 1.83,0 2.72,1.27 2.72,3.58l0 8.61 3.99 0 0 -9.99c0,-3.73 -2.16,-5.78 -5.22,-5.78 -2.05,0 -4.36,1.08 -4.74,3.73l0 -3.43 -3.73 0 0 15.47 4.03 0 0 -8.42 0 0zm-13.76 -4.37c1.9,0 3.09,1.34 3.21,3.51l-6.64 0c0.33,-2.31 1.53,-3.51 3.43,-3.51z"/>
   <path class="fil1" d="M22.23 9.03c-0.72,-0.43 -1.95,-0.79 -3,-0.74 -0.03,0.04 -2.25,4.14 -2.33,4.29 -0.4,0.71 -0.76,1.43 -1.16,2.14l-1.05 1.99c-0.04,0.04 0,0 -0.08,0.04l-0.03 0.08c-0.12,-0.15 -1.38,-2.22 -1.49,-2.45 -0.19,-0.29 -2.75,-4.54 -2.94,-4.8 -0.84,-1.04 -1.69,-1.02 -2.89,-1.01l-5.82 0.16c-0.74,0.01 -1.71,-0.09 -1.37,0.47 0.35,0.66 1.03,1.73 1.45,2.44l4.43 7.25c1.22,1.99 2.56,4.1 3.71,6.06 0.19,0.3 0.41,0.29 0.52,0.03l1.02 -1.88c0.65,-1.09 1.41,-2.59 2.03,-3.72 0.11,-0.19 1.24,-2.33 1.38,-2.48 0,0 0.01,0.04 0.01,0.04l0.19 0.25c0.45,0.63 1.06,1.18 1.7,1.59 0.79,0.47 1.8,0.79 2.92,0.77 2.08,-0.02 3.75,-1.06 4.81,-2.79 1.05,-1.76 0.98,-4.11 -0.12,-5.89 -0.5,-0.81 -1.1,-1.32 -1.89,-1.84l0 0 0 0 0 0 0 0zm0 0zm0 0z"/>
   <path class="fil0" d="M149.94 25.31l0 -14.57 5.02 0c1.13,0 1.99,0.07 2.59,0.21 0.83,0.19 1.54,0.54 2.13,1.04 0.77,0.65 1.35,1.48 1.73,2.49 0.38,1.01 0.57,2.17 0.57,3.47 0,1.1 -0.13,2.08 -0.39,2.94 -0.25,0.85 -0.59,1.56 -0.99,2.12 -0.41,0.56 -0.85,1 -1.33,1.32 -0.48,0.32 -1.06,0.56 -1.73,0.73 -0.69,0.16 -1.47,0.25 -2.35,0.25l-5.25 0zm1.93 -1.71l3.11 0c0.96,0 1.71,-0.09 2.25,-0.27 0.55,-0.18 0.98,-0.43 1.31,-0.76 0.45,-0.45 0.81,-1.07 1.06,-1.84 0.26,-0.78 0.39,-1.71 0.39,-2.81 0,-1.53 -0.25,-2.7 -0.75,-3.52 -0.5,-0.82 -1.11,-1.37 -1.82,-1.65 -0.52,-0.2 -1.35,-0.3 -2.49,-0.3l-3.06 0 0 11.15zm19.73 -1.71l1.85 0.24c-0.28,1.08 -0.82,1.92 -1.61,2.51 -0.79,0.59 -1.79,0.89 -3.01,0.89 -1.54,0 -2.76,-0.47 -3.66,-1.42 -0.91,-0.95 -1.36,-2.28 -1.36,-3.99 0,-1.77 0.46,-3.15 1.37,-4.13 0.91,-0.98 2.09,-1.46 3.55,-1.46 1.41,0 2.56,0.47 3.45,1.43 0.89,0.96 1.34,2.31 1.34,4.05 0,0.11 -0.01,0.26 -0.01,0.48l-7.87 0c0.07,1.15 0.4,2.04 0.99,2.65 0.58,0.62 1.32,0.93 2.2,0.93 0.65,0 1.21,-0.18 1.67,-0.52 0.47,-0.35 0.83,-0.9 1.1,-1.66zm-5.85 -2.87l5.87 0c-0.07,-0.89 -0.3,-1.55 -0.67,-2 -0.57,-0.68 -1.31,-1.03 -2.21,-1.03 -0.82,0 -1.51,0.28 -2.07,0.82 -0.55,0.55 -0.86,1.29 -0.92,2.21zm12.85 6.29l-3.98 -10.56 1.91 0 2.26 6.32c0.24,0.68 0.47,1.39 0.68,2.13 0.16,-0.56 0.38,-1.23 0.67,-2.01l2.34 -6.44 1.84 0 -4 10.56 -1.72 0zm14.49 -3.42l1.85 0.24c-0.29,1.08 -0.83,1.92 -1.62,2.51 -0.78,0.59 -1.79,0.89 -3.01,0.89 -1.54,0 -2.76,-0.47 -3.66,-1.42 -0.9,-0.95 -1.35,-2.28 -1.35,-3.99 0,-1.77 0.45,-3.15 1.36,-4.13 0.91,-0.98 2.1,-1.46 3.55,-1.46 1.41,0 2.56,0.47 3.45,1.43 0.89,0.96 1.34,2.31 1.34,4.05 0,0.11 -0.01,0.26 -0.01,0.48l-7.86 0c0.06,1.15 0.39,2.04 0.98,2.65 0.59,0.62 1.32,0.93 2.2,0.93 0.65,0 1.21,-0.18 1.67,-0.52 0.47,-0.35 0.83,-0.9 1.11,-1.66zm-5.86 -2.87l5.88 0c-0.08,-0.89 -0.31,-1.55 -0.68,-2 -0.56,-0.68 -1.3,-1.03 -2.21,-1.03 -0.82,0 -1.51,0.28 -2.07,0.82 -0.55,0.55 -0.86,1.29 -0.92,2.21zm9.93 6.29l0 -14.57 1.79 0 0 14.57 -1.79 0zm3.88 -5.28c0,-1.95 0.55,-3.4 1.64,-4.33 0.9,-0.78 2.01,-1.17 3.31,-1.17 1.45,0 2.64,0.47 3.56,1.42 0.92,0.95 1.38,2.26 1.38,3.93 0,1.35 -0.2,2.42 -0.61,3.2 -0.41,0.77 -1,1.38 -1.78,1.81 -0.78,0.43 -1.63,0.64 -2.55,0.64 -1.47,0 -2.67,-0.47 -3.58,-1.42 -0.91,-0.94 -1.37,-2.31 -1.37,-4.08zm1.84 0c0,1.35 0.29,2.36 0.88,3.03 0.59,0.67 1.34,1.01 2.23,1.01 0.89,0 1.63,-0.34 2.22,-1.02 0.6,-0.67 0.89,-1.7 0.89,-3.08 0,-1.3 -0.3,-2.28 -0.89,-2.95 -0.59,-0.67 -1.33,-1.01 -2.22,-1.01 -0.89,0 -1.64,0.33 -2.23,1 -0.59,0.67 -0.88,1.68 -0.88,3.02zm10.15 9.32l0 -14.6 1.63 0 0 1.39c0.38,-0.54 0.81,-0.94 1.3,-1.21 0.48,-0.27 1.07,-0.4 1.75,-0.4 0.91,0 1.7,0.23 2.39,0.69 0.68,0.46 1.2,1.12 1.56,1.96 0.34,0.84 0.52,1.76 0.52,2.77 0,1.08 -0.19,2.04 -0.58,2.91 -0.38,0.86 -0.95,1.52 -1.69,1.98 -0.73,0.46 -1.51,0.69 -2.32,0.69 -0.6,0 -1.13,-0.13 -1.6,-0.38 -0.48,-0.25 -0.87,-0.56 -1.17,-0.95l0 5.15 -1.79 0zm1.63 -9.26c0,1.36 0.27,2.36 0.82,3 0.55,0.65 1.21,0.98 1.99,0.98 0.79,0 1.47,-0.34 2.03,-1.01 0.57,-0.67 0.85,-1.71 0.85,-3.12 0,-1.34 -0.27,-2.34 -0.83,-3.01 -0.55,-0.67 -1.21,-1 -1.97,-1 -0.76,0 -1.43,0.36 -2.02,1.06 -0.58,0.72 -0.87,1.75 -0.87,3.1zm16.88 1.8l1.85 0.24c-0.29,1.08 -0.82,1.92 -1.61,2.51 -0.79,0.59 -1.79,0.89 -3.01,0.89 -1.54,0 -2.76,-0.47 -3.67,-1.42 -0.9,-0.95 -1.35,-2.28 -1.35,-3.99 0,-1.77 0.46,-3.15 1.37,-4.13 0.91,-0.98 2.09,-1.46 3.55,-1.46 1.4,0 2.55,0.47 3.44,1.43 0.9,0.96 1.34,2.31 1.34,4.05 0,0.11 0,0.26 -0.01,0.48l-7.86 0c0.07,1.15 0.4,2.04 0.98,2.65 0.59,0.62 1.33,0.93 2.21,0.93 0.65,0 1.21,-0.18 1.67,-0.52 0.46,-0.35 0.83,-0.9 1.1,-1.66zm-5.86 -2.87l5.88 0c-0.08,-0.89 -0.3,-1.55 -0.67,-2 -0.57,-0.68 -1.31,-1.03 -2.21,-1.03 -0.82,0 -1.51,0.28 -2.07,0.82 -0.56,0.55 -0.87,1.29 -0.93,2.21zm9.95 6.29l0 -10.56 1.61 0 0 1.62c0.41,-0.75 0.79,-1.25 1.14,-1.48 0.35,-0.25 0.73,-0.36 1.15,-0.36 0.6,0 1.21,0.19 1.84,0.56l-0.64 1.65c-0.43,-0.24 -0.87,-0.36 -1.3,-0.36 -0.39,0 -0.74,0.12 -1.05,0.35 -0.31,0.23 -0.53,0.56 -0.66,0.98 -0.2,0.63 -0.3,1.32 -0.3,2.08l0 5.52 -1.79 0zm6.09 -3.16l1.76 -0.28c0.1,0.71 0.38,1.25 0.84,1.63 0.45,0.38 1.09,0.57 1.9,0.57 0.82,0 1.43,-0.17 1.83,-0.51 0.4,-0.33 0.6,-0.72 0.6,-1.17 0,-0.41 -0.18,-0.72 -0.54,-0.96 -0.25,-0.15 -0.86,-0.35 -1.83,-0.6 -1.3,-0.33 -2.21,-0.62 -2.72,-0.86 -0.5,-0.24 -0.89,-0.57 -1.15,-1 -0.26,-0.42 -0.39,-0.9 -0.39,-1.41 0,-0.47 0.11,-0.91 0.32,-1.31 0.22,-0.4 0.51,-0.73 0.88,-0.99 0.28,-0.21 0.66,-0.38 1.14,-0.52 0.48,-0.14 0.99,-0.21 1.54,-0.21 0.82,0 1.55,0.11 2.17,0.36 0.63,0.23 1.09,0.56 1.39,0.96 0.3,0.42 0.5,0.96 0.61,1.65l-1.74 0.24c-0.08,-0.55 -0.31,-0.98 -0.69,-1.29 -0.38,-0.31 -0.92,-0.46 -1.61,-0.46 -0.82,0 -1.41,0.14 -1.76,0.41 -0.35,0.27 -0.52,0.59 -0.52,0.95 0,0.23 0.07,0.44 0.22,0.63 0.14,0.19 0.37,0.35 0.68,0.47 0.18,0.07 0.7,0.22 1.58,0.46 1.26,0.34 2.14,0.61 2.64,0.83 0.5,0.21 0.9,0.53 1.18,0.93 0.29,0.41 0.43,0.92 0.43,1.53 0,0.59 -0.17,1.15 -0.52,1.68 -0.35,0.52 -0.85,0.93 -1.51,1.22 -0.65,0.29 -1.4,0.43 -2.22,0.43 -1.37,0 -2.42,-0.29 -3.14,-0.85 -0.72,-0.57 -1.17,-1.41 -1.37,-2.53z"/>
  </g>
  <rect class="fil2" x="0.04" width="250.41" height="35.01"/>
 </g>
</svg>
