<?xml version="1.0" encoding="UTF-8"?>
<!DOCTYPE svg PUBLIC "-//W3C//DTD SVG 1.0//EN" "http://www.w3.org/TR/2001/REC-SVG-20010904/DTD/svg10.dtd">
<!-- Creator: CorelDRAW (Versão OEM) -->
<svg xmlns="http://www.w3.org/2000/svg" xml:space="preserve" width="250px" height="35px" version="1.0" style="shape-rendering:geometricPrecision; text-rendering:geometricPrecision; image-rendering:optimizeQuality; fill-rule:evenodd; clip-rule:evenodd"
viewBox="0 0 250.5 35.02"
 xmlns:xlink="http://www.w3.org/1999/xlink"
 xmlns:xodm="http://www.corel.com/coreldraw/odm/2003">
 <defs>
  <style type="text/css">
   <![CDATA[
    .fil2 {fill:none}
    .fil1 {fill:#23C25F}
    .fil0 {fill:#1A1A1A;fill-rule:nonzero}
   ]]>
  </style>
 </defs>
 <g id="Camada_x0020_1">
  <metadata id="CorelCorpID_0Corel-Layer"/>
  <g id="_2071429098912">
   <path class="fil0" d="M53.22 25.36l0.04 0c3.73,0 6.42,-2.02 7.27,-5.52l-3.99 0c-0.44,1.56 -1.64,2.42 -3.39,2.42 -2.05,0 -3.25,-1.38 -3.51,-3.92l10.93 0c0.75,-5.03 -2.5,-9.02 -7.38,-9.02 -4.44,0 -7.65,3.39 -7.65,7.98 0,4.85 3.06,8.06 7.68,8.06l0 0zm-7.79 -15.74l-4.03 0 -3.69 10.89 -3.69 -10.89 -4.33 0 5.71 15.48 4.4 0 5.63 -15.48 0 0 0 0zm87.28 15.74c3.77,0 6.45,-1.98 7.31,-5.52l-3.99 0c-0.45,1.56 -1.64,2.42 -3.39,2.42 -2.06,0 -3.25,-1.38 -3.51,-3.92l10.93 0c0.74,-5.03 -2.5,-9.02 -7.39,-9.02 -4.44,0 -7.64,3.39 -7.64,7.98 0,4.85 3.06,8.06 7.68,8.06l0 0zm-0.11 -13.06c1.9,0 3.09,1.35 3.2,3.51l-6.63 0c0.33,-2.31 1.52,-3.51 3.43,-3.51zm-9.07 12.8l0 -3.51 -8.2 0 7.98 -8.65 0 -3.32 -12.98 0 0 3.47 7.98 0 -7.94 8.76 0 3.25 13.16 0 0 0 0 0zm-17.94 0l3.29 0 0 -9.74c0,-3.8 -2.39,-6.04 -6.42,-6.04 -3.73,0 -6.3,2.35 -6.53,5.89l3.58 0c0.15,-1.71 1.2,-2.76 2.95,-2.76 1.68,0 2.65,1.05 2.65,2.76l0 0.93c-0.97,-0.11 -1.72,-0.18 -2.58,-0.18 -4.51,0 -6.93,1.64 -6.93,4.66 0,2.87 2.12,4.77 5.33,4.77 2.13,0 4.22,-1.64 4.66,-3.28l0 2.99 0 0zm-6.19 -4.59c0,-1.42 1.12,-2.13 3.4,-2.13 0.7,0 1.34,0.04 2.31,0.19l0 1.12c0,1.79 -1.23,2.91 -3.29,2.91 -1.52,0 -2.42,-0.82 -2.42,-2.09l0 0zm-21.04 -3.13c0,4.51 2.69,8.01 6.87,8.01 1.97,0 4.29,-1.38 4.85,-3.28l0 2.99 3.69 0 0 -19.44 -3.99 0 0 5.97c-1.16,-1.49 -2.72,-2.31 -4.55,-2.31 -4.18,0 -6.87,3.47 -6.87,8.06zm4.14 0c0,-2.99 1.65,-4.48 3.62,-4.48 1.94,0 3.62,1.49 3.62,4.4 0,2.95 -1.64,4.48 -3.62,4.48 -1.97,0 -3.62,-1.53 -3.62,-4.4zm-15.62 -0.71c0,-2.5 1.38,-3.77 2.94,-3.77 1.83,0 2.73,1.27 2.73,3.58l0 8.62 3.99 0 0 -10c0,-3.73 -2.17,-5.78 -5.23,-5.78 -2.05,0 -4.36,1.08 -4.73,3.73l0 -3.43 -3.73 0 0 15.48 4.03 0 0 -8.43 0 0zm-13.77 -4.37c1.9,0 3.1,1.35 3.21,3.51l-6.64 0c0.34,-2.31 1.53,-3.51 3.43,-3.51z"/>
   <path class="fil1" d="M22.23 9.03c-0.72,-0.43 -1.95,-0.79 -3,-0.74 -0.03,0.04 -2.25,4.14 -2.32,4.29 -0.4,0.71 -0.77,1.43 -1.17,2.14l-1.05 1.99c-0.04,0.04 0,0 -0.08,0.04l-0.03 0.08c-0.12,-0.15 -1.38,-2.22 -1.49,-2.45 -0.19,-0.29 -2.75,-4.54 -2.94,-4.8 -0.84,-1.04 -1.69,-1.02 -2.89,-1.01l-5.82 0.16c-0.74,0.01 -1.71,-0.09 -1.37,0.47 0.35,0.66 1.03,1.74 1.45,2.44l4.43 7.25c1.22,1.99 2.56,4.1 3.71,6.06 0.19,0.3 0.41,0.3 0.52,0.03l1.02 -1.88c0.65,-1.09 1.42,-2.59 2.03,-3.72 0.11,-0.19 1.24,-2.33 1.39,-2.48 0,0 0,0.04 0,0.04l0.19 0.26c0.45,0.62 1.06,1.18 1.7,1.58 0.79,0.47 1.8,0.79 2.92,0.78 2.09,-0.03 3.75,-1.06 4.81,-2.8 1.05,-1.76 0.99,-4.11 -0.12,-5.89 -0.5,-0.81 -1.1,-1.33 -1.89,-1.84l0 0 0 0 0 0 0 0zm0 0zm0 0z"/>
   <path class="fil0" d="M149.95 25.31l0 -14.57 5.02 0c1.13,0 1.99,0.07 2.59,0.21 0.83,0.19 1.54,0.54 2.14,1.04 0.76,0.66 1.34,1.48 1.72,2.49 0.38,1.01 0.57,2.17 0.57,3.47 0,1.1 -0.13,2.08 -0.39,2.94 -0.25,0.85 -0.59,1.56 -0.99,2.12 -0.41,0.56 -0.85,1 -1.33,1.32 -0.48,0.32 -1.06,0.56 -1.73,0.73 -0.69,0.17 -1.47,0.25 -2.35,0.25l-5.25 0zm1.93 -1.71l3.11 0c0.95,0 1.71,-0.09 2.25,-0.27 0.55,-0.18 0.98,-0.43 1.31,-0.75 0.45,-0.46 0.81,-1.08 1.06,-1.85 0.26,-0.78 0.39,-1.71 0.39,-2.81 0,-1.53 -0.25,-2.7 -0.75,-3.52 -0.5,-0.82 -1.11,-1.37 -1.82,-1.65 -0.52,-0.2 -1.35,-0.3 -2.49,-0.3l-3.06 0 0 11.15zm19.73 -1.71l1.86 0.24c-0.29,1.08 -0.83,1.92 -1.62,2.51 -0.78,0.59 -1.79,0.89 -3.01,0.89 -1.54,0 -2.76,-0.47 -3.66,-1.42 -0.91,-0.95 -1.36,-2.28 -1.36,-3.99 0,-1.77 0.46,-3.15 1.37,-4.13 0.91,-0.97 2.1,-1.46 3.55,-1.46 1.41,0 2.56,0.47 3.45,1.43 0.89,0.96 1.34,2.31 1.34,4.05 0,0.11 -0.01,0.27 -0.01,0.48l-7.87 0c0.07,1.15 0.4,2.04 0.99,2.65 0.58,0.62 1.32,0.93 2.2,0.93 0.65,0 1.21,-0.18 1.67,-0.52 0.47,-0.35 0.83,-0.9 1.1,-1.66zm-5.85 -2.87l5.87 0c-0.07,-0.89 -0.3,-1.55 -0.67,-1.99 -0.57,-0.69 -1.31,-1.04 -2.21,-1.04 -0.82,0 -1.51,0.28 -2.07,0.83 -0.55,0.54 -0.86,1.28 -0.92,2.2zm12.85 6.29l-3.98 -10.56 1.91 0 2.26 6.32c0.25,0.69 0.47,1.39 0.68,2.13 0.16,-0.56 0.38,-1.22 0.67,-2.01l2.34 -6.44 1.84 0 -4 10.56 -1.72 0zm14.49 -3.42l1.85 0.24c-0.29,1.08 -0.83,1.92 -1.61,2.51 -0.79,0.59 -1.79,0.89 -3.02,0.89 -1.54,0 -2.76,-0.47 -3.66,-1.42 -0.9,-0.95 -1.35,-2.28 -1.35,-3.99 0,-1.77 0.45,-3.15 1.36,-4.13 0.92,-0.97 2.1,-1.46 3.55,-1.46 1.41,0 2.56,0.47 3.45,1.43 0.89,0.96 1.34,2.31 1.34,4.05 0,0.11 0,0.27 -0.01,0.48l-7.86 0c0.07,1.15 0.39,2.04 0.98,2.65 0.59,0.62 1.32,0.93 2.2,0.93 0.66,0 1.22,-0.18 1.68,-0.52 0.46,-0.35 0.83,-0.9 1.1,-1.66zm-5.86 -2.87l5.88 0c-0.08,-0.89 -0.31,-1.55 -0.68,-1.99 -0.56,-0.69 -1.3,-1.04 -2.21,-1.04 -0.82,0 -1.51,0.28 -2.06,0.83 -0.56,0.54 -0.87,1.28 -0.93,2.2zm9.93 6.29l0 -14.57 1.79 0 0 14.57 -1.79 0zm3.89 -5.28c0,-1.95 0.54,-3.39 1.63,-4.33 0.9,-0.78 2.01,-1.17 3.32,-1.17 1.45,0 2.63,0.47 3.55,1.42 0.92,0.95 1.38,2.26 1.38,3.93 0,1.36 -0.2,2.42 -0.61,3.2 -0.4,0.77 -1,1.38 -1.78,1.81 -0.77,0.43 -1.62,0.64 -2.54,0.64 -1.48,0 -2.67,-0.47 -3.59,-1.42 -0.91,-0.94 -1.36,-2.3 -1.36,-4.08zm1.83 0c0,1.35 0.29,2.36 0.88,3.03 0.6,0.67 1.34,1.01 2.24,1.01 0.89,0 1.63,-0.34 2.22,-1.01 0.59,-0.68 0.88,-1.7 0.88,-3.08 0,-1.31 -0.3,-2.29 -0.89,-2.96 -0.59,-0.67 -1.33,-1.01 -2.21,-1.01 -0.9,0 -1.64,0.33 -2.24,1 -0.59,0.67 -0.88,1.68 -0.88,3.02zm10.15 9.33l0 -14.61 1.63 0 0 1.39c0.38,-0.54 0.82,-0.94 1.3,-1.21 0.48,-0.27 1.07,-0.4 1.76,-0.4 0.9,0 1.69,0.23 2.38,0.69 0.69,0.46 1.21,1.12 1.56,1.96 0.35,0.84 0.53,1.76 0.53,2.77 0,1.08 -0.2,2.05 -0.58,2.91 -0.39,0.86 -0.95,1.52 -1.69,1.98 -0.74,0.46 -1.51,0.69 -2.33,0.69 -0.59,0 -1.13,-0.12 -1.6,-0.37 -0.48,-0.26 -0.86,-0.57 -1.17,-0.95l0 5.15 -1.79 0zm1.63 -9.27c0,1.36 0.27,2.36 0.82,3 0.55,0.65 1.21,0.98 1.99,0.98 0.8,0 1.47,-0.34 2.04,-1.01 0.56,-0.67 0.85,-1.71 0.85,-3.12 0,-1.34 -0.28,-2.34 -0.83,-3.01 -0.55,-0.67 -1.21,-1 -1.98,-1 -0.76,0 -1.43,0.36 -2.01,1.07 -0.59,0.71 -0.88,1.74 -0.88,3.09zm16.89 1.8l1.85 0.24c-0.29,1.08 -0.83,1.92 -1.62,2.51 -0.78,0.59 -1.79,0.89 -3.01,0.89 -1.54,0 -2.76,-0.47 -3.66,-1.42 -0.9,-0.95 -1.35,-2.28 -1.35,-3.99 0,-1.77 0.45,-3.15 1.36,-4.13 0.91,-0.97 2.1,-1.46 3.55,-1.46 1.41,0 2.56,0.47 3.45,1.43 0.89,0.96 1.34,2.31 1.34,4.05 0,0.11 -0.01,0.27 -0.01,0.48l-7.86 0c0.06,1.15 0.39,2.04 0.98,2.65 0.59,0.62 1.32,0.93 2.2,0.93 0.65,0 1.21,-0.18 1.67,-0.52 0.47,-0.35 0.84,-0.9 1.11,-1.66zm-5.86 -2.87l5.88 0c-0.08,-0.89 -0.31,-1.55 -0.68,-1.99 -0.56,-0.69 -1.3,-1.04 -2.21,-1.04 -0.82,0 -1.51,0.28 -2.07,0.83 -0.55,0.54 -0.86,1.28 -0.92,2.2zm9.95 6.29l0 -10.56 1.61 0 0 1.62c0.4,-0.75 0.78,-1.25 1.13,-1.48 0.35,-0.24 0.74,-0.36 1.15,-0.36 0.61,0 1.22,0.19 1.84,0.56l-0.63 1.65c-0.44,-0.24 -0.87,-0.36 -1.31,-0.36 -0.38,0 -0.73,0.12 -1.04,0.35 -0.31,0.23 -0.53,0.56 -0.66,0.98 -0.2,0.63 -0.3,1.33 -0.3,2.08l0 5.52 -1.79 0zm6.08 -3.15l1.77 -0.29c0.1,0.71 0.38,1.25 0.83,1.63 0.45,0.38 1.09,0.57 1.91,0.57 0.82,0 1.43,-0.17 1.83,-0.51 0.4,-0.33 0.6,-0.72 0.6,-1.17 0,-0.41 -0.18,-0.72 -0.54,-0.95 -0.25,-0.16 -0.86,-0.36 -1.83,-0.61 -1.31,-0.33 -2.21,-0.61 -2.72,-0.85 -0.51,-0.25 -0.89,-0.58 -1.15,-1.01 -0.26,-0.42 -0.39,-0.89 -0.39,-1.41 0,-0.47 0.1,-0.9 0.32,-1.3 0.21,-0.4 0.51,-0.74 0.88,-1 0.27,-0.2 0.65,-0.38 1.13,-0.52 0.48,-0.14 0.99,-0.21 1.54,-0.21 0.83,0 1.56,0.12 2.18,0.36 0.63,0.23 1.09,0.56 1.39,0.97 0.29,0.41 0.5,0.95 0.61,1.64l-1.75 0.24c-0.08,-0.55 -0.31,-0.98 -0.69,-1.29 -0.38,-0.31 -0.91,-0.46 -1.61,-0.46 -0.82,0 -1.4,0.14 -1.75,0.41 -0.35,0.27 -0.53,0.59 -0.53,0.95 0,0.23 0.08,0.44 0.22,0.63 0.15,0.19 0.37,0.35 0.69,0.47 0.18,0.07 0.7,0.22 1.57,0.46 1.26,0.34 2.14,0.61 2.65,0.83 0.5,0.21 0.89,0.53 1.18,0.93 0.29,0.41 0.43,0.92 0.43,1.53 0,0.6 -0.18,1.16 -0.52,1.68 -0.35,0.53 -0.86,0.93 -1.51,1.22 -0.66,0.29 -1.4,0.43 -2.23,0.43 -1.37,0 -2.42,-0.28 -3.13,-0.85 -0.72,-0.57 -1.18,-1.41 -1.38,-2.52z"/>
  </g>
  <rect class="fil2" x="0.04" width="250.43" height="35.02"/>
 </g>
</svg>
